<?xml version='1.0' encoding='UTF-8' standalone='no'?>
<!-- Created with Fritzing (http://www.fritzing.org/) -->
<svg xmlns:svg='http://www.w3.org/2000/svg' xmlns='http://www.w3.org/2000/svg' version='1.2' baseProfile='tiny' x='0in' y='0in' width='1.33589in' height='1.11353in' viewBox='0 0 96.1842 80.1744' >
<g partID='62310'><g transform='translate(46.6458,57.4224)' ><g transform='matrix(-1,0,0,1,0,0)'  ><g xmlns="http://www.w3.org/2000/svg" id="schematic">
<line x1="11.15" x2="11.15" class="other" xmlns="http://www.w3.org/2000/svg" stroke="#000000" y1="0.576" y2="22.176" stroke-width="1.152" stroke-linecap="round"/>
<line x1="14.75" x2="14.75" class="other" xmlns="http://www.w3.org/2000/svg" stroke="#000000" y1="7.776" y2="14.976" stroke-width="1.152" stroke-linecap="round"/>
<line x1="18.3501" x2="18.3501" class="other" xmlns="http://www.w3.org/2000/svg" stroke="#000000" y1="0.576" y2="22.176" stroke-width="1.152" stroke-linecap="round"/>
<line x1="21.9501" x2="21.9501" class="other" xmlns="http://www.w3.org/2000/svg" stroke="#000000" y1="7.776" y2="14.976" stroke-width="1.152" stroke-linecap="round"/>
<line x1="7.55002" x2="10.43" class="other" xmlns="http://www.w3.org/2000/svg" stroke="#000000" y1="11.376" y2="11.376" stroke-width="0.432002" stroke-linecap="round"/>
<line x1="29.1502" x2="21.9501" class="pin" connectorname="-" xmlns="http://www.w3.org/2000/svg" id="connector0pin" stroke="#787878" y1="11.376" y2="11.376" stroke-width="0.700001" stroke-linecap="round"/>
<g height="0.000283465" width="0.000283466" class="terminal" x="29.1502" xmlns="http://www.w3.org/2000/svg" y="11.376" id="connector0terminal" stroke="none" fill="none" stroke-width="0"/>
<text font-family="'Droid Sans'" class="text" font-size="2.50001" x="25.5501" xmlns="http://www.w3.org/2000/svg" y="10.326" text-anchor="middle" stroke="none" fill="#8c8c8c" stroke-width="0">1</text>
<line x1="0.350001" x2="7.55002" class="pin" connectorname="+" xmlns="http://www.w3.org/2000/svg" id="connector1pin" stroke="#787878" y1="11.376" y2="11.376" stroke-width="0.700001" stroke-linecap="round"/>
<g height="0.000283465" width="0.000283466" class="terminal" x="0.350001" xmlns="http://www.w3.org/2000/svg" y="11.376" id="connector1terminal" stroke="none" fill="none" stroke-width="0"/>
<text font-family="'Droid Sans'" class="text" font-size="2.50001" x="3.95001" xmlns="http://www.w3.org/2000/svg" y="10.326" text-anchor="middle" stroke="none" fill="#8c8c8c" stroke-width="0">2</text>
</g>
</g></g></g><g partID='57540'><g transform='translate(8e-06,69.1487)' ><g transform='matrix(0,-1,1,0,0,0)'  ><g xmlns="http://www.w3.org/2000/svg" id="schematic">
<line x1="7.55002" x2="8.63003" class="other" xmlns="http://www.w3.org/2000/svg" stroke="#000000" y1="3.096" y2="0.216" stroke-width="0.432002" stroke-linecap="round"/>
<line x1="8.63003" x2="10.43" class="other" xmlns="http://www.w3.org/2000/svg" stroke="#000000" y1="0.216" y2="5.976" stroke-width="0.432002" stroke-linecap="round"/>
<line x1="10.43" x2="12.23" class="other" xmlns="http://www.w3.org/2000/svg" stroke="#000000" y1="5.976" y2="0.216" stroke-width="0.432002" stroke-linecap="round"/>
<line x1="12.23" x2="14.03" class="other" xmlns="http://www.w3.org/2000/svg" stroke="#000000" y1="0.216" y2="5.976" stroke-width="0.432002" stroke-linecap="round"/>
<line x1="14.03" x2="15.8301" class="other" xmlns="http://www.w3.org/2000/svg" stroke="#000000" y1="5.976" y2="0.216" stroke-width="0.432002" stroke-linecap="round"/>
<line x1="15.8301" x2="17.6301" class="other" xmlns="http://www.w3.org/2000/svg" stroke="#000000" y1="0.216" y2="5.976" stroke-width="0.432002" stroke-linecap="round"/>
<line x1="17.6301" x2="19.4301" class="other" xmlns="http://www.w3.org/2000/svg" stroke="#000000" y1="5.976" y2="0.216" stroke-width="0.432002" stroke-linecap="round"/>
<line x1="19.4301" x2="21.2301" class="other" xmlns="http://www.w3.org/2000/svg" stroke="#000000" y1="0.216" y2="5.976" stroke-width="0.432002" stroke-linecap="round"/>
<line x1="21.2301" x2="21.9501" class="other" xmlns="http://www.w3.org/2000/svg" stroke="#000000" y1="5.976" y2="3.096" stroke-width="0.432002" stroke-linecap="round"/>
<line x1="29.1502" x2="21.9501" class="pin" connectorname="2" xmlns="http://www.w3.org/2000/svg" id="connector1pin" stroke="#787878" y1="3.096" y2="3.096" stroke-width="0.700001" stroke-linecap="round"/>
<g height="0.000283465" width="0.000283466" class="terminal" x="29.1502" xmlns="http://www.w3.org/2000/svg" y="3.096" id="connector1terminal" stroke="none" fill="none" stroke-width="0"/>
<text font-family="'Droid Sans'" class="text" font-size="2.50001" x="25.5501" xmlns="http://www.w3.org/2000/svg" y="2.046" text-anchor="middle" stroke="none" fill="#8c8c8c" stroke-width="0">2</text>
<line x1="0.350001" x2="7.55002" class="pin" connectorname="1" xmlns="http://www.w3.org/2000/svg" id="connector0pin" stroke="#787878" y1="3.096" y2="3.096" stroke-width="0.700001" stroke-linecap="round"/>
<g height="0.000283465" width="0.000283466" class="terminal" x="0.350001" xmlns="http://www.w3.org/2000/svg" y="3.096" id="connector0terminal" stroke="none" fill="none" stroke-width="0"/>
<text font-family="'Droid Sans'" class="text" font-size="2.50001" x="3.95001" xmlns="http://www.w3.org/2000/svg" y="2.046" text-anchor="middle" stroke="none" fill="#8c8c8c" stroke-width="0">1</text>
</g>
</g></g></g><g partID='57810'><g transform='translate(39.3107,30.098)' ><g transform='matrix(0,1,-1,0,0,0)'  ><g id="schematic">
<g>
<path d="M13.5,14.966L9.9,14.966c-0.193,0,-0.35,-0.156,-0.35,-0.35s0.156,-0.35,0.35,-0.35L13.5,14.266c0.193,0,0.35,0.156,0.35,0.35S13.694,14.966,13.5,14.966z"/>
</g>
<g>
<path d="M9.9,14.966L6.3,14.966c-0.193,0,-0.35,-0.156,-0.35,-0.35s0.157,-0.35,0.35,-0.35l3.6,0c0.193,0,0.35,0.156,0.35,0.35S10.093,14.966,9.9,14.966z"/>
</g>
<g>
<polygon points="9.9,14.616,6.3,7.416,9.9,7.416,13.5,7.416" fill="#FFFFFF"/>
<path d="M9.9,15.398L5.734,7.066l8.333,0L9.9,15.398zM6.866,7.766L9.9,13.834l3.034,-6.068L6.866,7.766z"/>
</g>
<g>
<path d="M9.9,14.841c-0.124,0,-0.225,-0.101,-0.225,-0.225l0,-7.2c0,-0.124,0.101,-0.225,0.225,-0.225s0.225,0.101,0.225,0.225l0,7.2C10.124,14.74,10.024,14.841,9.9,14.841z"/>
</g>
<g>
<path d="M1.8,12.141c-0.058,0,-0.115,-0.021,-0.159,-0.065c-0.088,-0.088,-0.088,-0.23,0,-0.318l2.34,-2.341c0.088,-0.088,0.23,-0.088,0.318,0s0.088,0.23,0,0.318l-2.34,2.341C1.915,12.12,1.858,12.141,1.8,12.141z"/>
</g>
<g>
<path d="M2.16,15.381c-0.058,0,-0.115,-0.021,-0.159,-0.065c-0.088,-0.088,-0.088,-0.23,0,-0.318l2.34,-2.34c0.088,-0.088,0.23,-0.088,0.318,0s0.088,0.23,0,0.318l-2.34,2.34C2.276,15.359,2.218,15.381,2.16,15.381z"/>
</g>
<g id="connector0pin">
<path d="M9.9,22.166c-0.193,0,-0.35,-0.156,-0.35,-0.35l0,-7.2c0,-0.193,0.156,-0.35,0.35,-0.35s0.35,0.156,0.35,0.35l0,7.2C10.249,22.01,10.093,22.166,9.9,22.166z" fill="#787878"/>
</g>
<g id="connector0terminal">
<rect height="0.001" width="0.001" x="9.9" y="21.816" fill="none"/>
</g>
<g transform="matrix(1, 0, 0, 1, 3.429, 6.4262)">
<g>
<g transform="rotate(270)">
<g>
<g enable-background="new    ">
<path d="M-11.647,5.54l-0.891,0L-12.538,5.388l0.342,-0.372c0.049,-0.053,0.093,-0.101,0.131,-0.145s0.071,-0.086,0.099,-0.128c0.026,-0.042,0.047,-0.084,0.062,-0.125c0.015,-0.043,0.021,-0.088,0.021,-0.138c0,-0.038,-0.005,-0.072,-0.017,-0.102s-0.027,-0.054,-0.047,-0.075c-0.021,-0.02,-0.045,-0.035,-0.073,-0.046s-0.06,-0.016,-0.094,-0.016c-0.062,0,-0.118,0.013,-0.167,0.038c-0.051,0.024,-0.098,0.057,-0.143,0.096l-0.1,-0.116c0.025,-0.023,0.055,-0.046,0.084,-0.065c0.029,-0.021,0.063,-0.039,0.097,-0.054s0.071,-0.026,0.109,-0.036c0.038,-0.008,0.079,-0.013,0.121,-0.013c0.063,0,0.119,0.009,0.169,0.026c0.051,0.018,0.094,0.043,0.129,0.076c0.035,0.032,0.063,0.072,0.082,0.119c0.019,0.048,0.028,0.101,0.028,0.16c0,0.056,-0.009,0.108,-0.026,0.158c-0.017,0.05,-0.041,0.1,-0.07,0.148c-0.031,0.048,-0.066,0.097,-0.109,0.146c-0.041,0.049,-0.087,0.1,-0.136,0.152L-12.32,5.37l0,0.008l0.673,0L-11.647,5.54z" fill="#787878"/>
</g>
</g>
</g>
</g>
</g>
<g id="connector1pin">
<path d="M9.9,7.766c-0.193,0,-0.35,-0.157,-0.35,-0.35l0,-7.2c0,-0.193,0.156,-0.35,0.35,-0.35s0.35,0.157,0.35,0.35l0,7.2C10.249,7.609,10.093,7.766,9.9,7.766z" fill="#787878"/>
</g>
<g id="connector1terminal">
<polygon points="9.9,0.216,9.901,0.216,9.901,0.216" fill="none"/>
</g>
<g transform="matrix(1, 0, 0, 1, 3.429, 1.3462)">
<g>
<g transform="rotate(270)">
<g>
<g enable-background="new    ">
<path d="M-2.616,5.54l-0.172,0L-2.788,4.648c0,-0.028,0,-0.058,0,-0.09s0.001,-0.063,0.002,-0.095c0.001,-0.032,0.002,-0.063,0.003,-0.092c0.001,-0.028,0.002,-0.054,0.002,-0.076c-0.011,0.012,-0.021,0.021,-0.029,0.03s-0.017,0.017,-0.026,0.024s-0.018,0.016,-0.028,0.025c-0.01,0.008,-0.021,0.019,-0.035,0.03l-0.145,0.118l-0.094,-0.12l0.374,-0.292l0.146,0L-2.618,5.54z" fill="#787878"/>
</g>
</g>
</g>
</g>
</g>
<g>
<path d="M0.18,13.536l1.08,-2.521l1.44,1.438L0.18,13.536z"/>
</g>
<g>
<path d="M0.54,16.776l1.08,-2.521l1.438,1.438L0.54,16.776z"/>
</g>
</g>
</g></g></g><g partID='124430'><g transform='translate(88.9842,18.4)' ><g transform='matrix(0,1,-1,0,0,0)'  ><g id="schematic">
<polyline stroke="#000000" points="4.125,17.557,21.6,27.474,21.6,37.743" fill="none" stroke-width="0.7" stroke-linecap="round"/>
<polygon points="4.23,19.505,-0.022,15.188,5.819,16.8"/>
<polyline stroke="#000000" points="14.401,36,14.401,34.559,11.521,32.4,18.001,28.799,11.521,25.2,18.001,21.6,11.521,18,18.001,14.4,11.521,10.8,14.401,8.64,14.401,7.2" fill="none" stroke-width="0.7" stroke-linecap="round"/>
<g d="M21.968,43.2l0,-1.054l-0.672,0.017L21.296,43.2L21.968,43.2z" id="connector1terminal" fill="none"/>
<line x1="21.621" x2="21.621" id="connector1pin" stroke="#787878" y1="42.85" fill="none" y2="36" stroke-width="0.7" stroke-linecap="round"/>
<line x1="14.4" x2="14.4" id="connector0pin" stroke="#787878" y1="42.85" fill="none" y2="36" stroke-width="0.7" stroke-linecap="round"/>
<g d="M14.047,42.176l0.703,0L14.719,43.2l-0.656,0L14.047,42.176z" id="connector0terminal" fill="none"/>
<g transform="matrix(1, 0, 0, 1, 11.521, 40.0005)">
<text font-family="'DroidSans'" font-size="2" fill="#787878">1</text>
</g>
<g transform="matrix(1, 0, 0, 1, 19.1245, 40.0005)">
<text font-family="'DroidSans'" font-size="2" fill="#787878">3</text>
</g>
<line x1="14.4" x2="14.4" id="connector2pin" stroke="#787878" y1="0.35" fill="none" y2="7.55" stroke-width="0.7" stroke-linecap="round"/>
<g d="M14.15,-0.25l0,0.5l0.497,-0.01l0.003,-0.49L14.15,-0.25z" id="connector2terminal" fill="none"/>
<g transform="matrix(1, 0, 0, 1, 11.521, 4.9751)">
<text font-family="'DroidSans'" font-size="2" fill="#787878">2</text>
</g>
</g>
</g></g></g><g partID='62100'><line stroke-linecap='round' stroke='#404040' x1='17.4942' y1='39.9985' x2='3.09617' y2='39.9983' stroke-width='0.699998' /></g><g partID='64040'><line stroke-linecap='round' stroke='#404040' x1='3.09617' y1='68.7985' x2='17.4955' y2='68.7985' stroke-width='0.699998' /></g><g partID='64050'><line stroke-linecap='round' stroke='#404040' x1='3.09617' y1='68.7985' x2='3.09617' y2='68.7985' stroke-width='0.699998' /></g><g partID='124880'><line stroke-linecap='round' stroke='#404040' x1='46.3112' y1='40.032' x2='39.0947' y2='39.9985' stroke-width='0.699998' /></g><g partID='125010'><line stroke-linecap='round' stroke='#404040' x1='89.4962' y1='68.7985' x2='88.9842' y2='32.8' stroke-width='0.699998' /></g><g partID='124950'><line stroke-linecap='round' stroke='#404040' x1='46.2962' y1='68.7985' x2='89.4962' y2='68.7985' stroke-width='0.699998' /></g><g partID='124960'><line stroke-linecap='round' stroke='#404040' x1='46.2957' y1='68.7985' x2='46.2962' y2='68.7985' stroke-width='0.699998' /></g><g partID='57540' id='partLabel'><g transform='translate(0.114328,37.1343)' ><g transform='matrix(0,-1,1,0,0,0)'  ><g font-size='3' font-style='normal' font-weight='normal' fill='#000000' font-family="'DroidSans'" id='schematicLabel' fill-opacity='1' stroke='none' ><text x='0' y='2.25'>R1</text><text x='0' y='5.25'>1k&#x3a9;</text></g></g></g></g><g partID='124430' id='partLabel'><g transform='translate(81.7842,0)' ><g font-size='5' font-style='normal' font-weight='normal' fill='#000000' font-family="'DroidSans'" id='schematicLabel' fill-opacity='1' stroke='none' ><text x='0' y='3.75'>R2</text><text x='0' y='8.75'>10k&#x3a9;</text></g></g></g></svg>