<?xml version='1.0' encoding='UTF-8' standalone='no'?>
<!-- Created with Fritzing (http://www.fritzing.org/) -->
<svg xmlns:svg='http://www.w3.org/2000/svg' xmlns='http://www.w3.org/2000/svg' version='1.2' baseProfile='tiny' x='0in' y='0in' width='1.37519in' height='0.853216in' viewBox='0 0 99.0134 61.4315' >
<g partID='62310'><g transform='translate(55.103,38.6795)' ><g transform='matrix(-1,0,0,1,0,0)'  ><g xmlns="http://www.w3.org/2000/svg" id="schematic">
<line class="other" xmlns="http://www.w3.org/2000/svg" stroke-linecap="round" stroke="#000000" stroke-width="1.152" y1="0.576" y2="22.176" x1="11.15" x2="11.15"/>
<line class="other" xmlns="http://www.w3.org/2000/svg" stroke-linecap="round" stroke="#000000" stroke-width="1.152" y1="7.776" y2="14.976" x1="14.75" x2="14.75"/>
<line class="other" xmlns="http://www.w3.org/2000/svg" stroke-linecap="round" stroke="#000000" stroke-width="1.152" y1="0.576" y2="22.176" x1="18.3501" x2="18.3501"/>
<line class="other" xmlns="http://www.w3.org/2000/svg" stroke-linecap="round" stroke="#000000" stroke-width="1.152" y1="7.776" y2="14.976" x1="21.9501" x2="21.9501"/>
<line class="other" xmlns="http://www.w3.org/2000/svg" stroke-linecap="round" stroke="#000000" stroke-width="0.432002" y1="11.376" y2="11.376" x1="7.55002" x2="10.43"/>
<line class="pin" xmlns="http://www.w3.org/2000/svg" stroke-linecap="round" stroke="#787878" id="connector0pin" stroke-width="0.700001" connectorname="-" y1="11.376" y2="11.376" x1="29.1502" x2="21.9501"/>
<g class="terminal" xmlns="http://www.w3.org/2000/svg" stroke="none" height="0.000283465" id="connector0terminal" stroke-width="0" fill="none" width="0.000283466" x="29.1502" y="11.376"/>
<text class="text" text-anchor="middle" xmlns="http://www.w3.org/2000/svg" stroke="none" font-family="'Droid Sans'" stroke-width="0" font-size="2.50001" fill="#8c8c8c" x="25.5501" y="10.326">1</text>
<line class="pin" xmlns="http://www.w3.org/2000/svg" stroke-linecap="round" stroke="#787878" id="connector1pin" stroke-width="0.700001" connectorname="+" y1="11.376" y2="11.376" x1="0.350001" x2="7.55002"/>
<g class="terminal" xmlns="http://www.w3.org/2000/svg" stroke="none" height="0.000283465" id="connector1terminal" stroke-width="0" fill="none" width="0.000283466" x="0.350001" y="11.376"/>
<text class="text" text-anchor="middle" xmlns="http://www.w3.org/2000/svg" stroke="none" font-family="'Droid Sans'" stroke-width="0" font-size="2.50001" fill="#8c8c8c" x="3.95001" y="10.326">2</text>
</g>
</g></g></g><g partID='57540'><g transform='translate(8.45712,50.4058)' ><g transform='matrix(0,-1,1,0,0,0)'  ><g xmlns="http://www.w3.org/2000/svg" id="schematic">
<line class="other" xmlns="http://www.w3.org/2000/svg" stroke-linecap="round" stroke="#000000" stroke-width="0.432002" y1="3.096" y2="0.216" x1="7.55002" x2="8.63003"/>
<line class="other" xmlns="http://www.w3.org/2000/svg" stroke-linecap="round" stroke="#000000" stroke-width="0.432002" y1="0.216" y2="5.976" x1="8.63003" x2="10.43"/>
<line class="other" xmlns="http://www.w3.org/2000/svg" stroke-linecap="round" stroke="#000000" stroke-width="0.432002" y1="5.976" y2="0.216" x1="10.43" x2="12.23"/>
<line class="other" xmlns="http://www.w3.org/2000/svg" stroke-linecap="round" stroke="#000000" stroke-width="0.432002" y1="0.216" y2="5.976" x1="12.23" x2="14.03"/>
<line class="other" xmlns="http://www.w3.org/2000/svg" stroke-linecap="round" stroke="#000000" stroke-width="0.432002" y1="5.976" y2="0.216" x1="14.03" x2="15.8301"/>
<line class="other" xmlns="http://www.w3.org/2000/svg" stroke-linecap="round" stroke="#000000" stroke-width="0.432002" y1="0.216" y2="5.976" x1="15.8301" x2="17.6301"/>
<line class="other" xmlns="http://www.w3.org/2000/svg" stroke-linecap="round" stroke="#000000" stroke-width="0.432002" y1="5.976" y2="0.216" x1="17.6301" x2="19.4301"/>
<line class="other" xmlns="http://www.w3.org/2000/svg" stroke-linecap="round" stroke="#000000" stroke-width="0.432002" y1="0.216" y2="5.976" x1="19.4301" x2="21.2301"/>
<line class="other" xmlns="http://www.w3.org/2000/svg" stroke-linecap="round" stroke="#000000" stroke-width="0.432002" y1="5.976" y2="3.096" x1="21.2301" x2="21.9501"/>
<line class="pin" xmlns="http://www.w3.org/2000/svg" stroke-linecap="round" stroke="#787878" id="connector1pin" stroke-width="0.700001" connectorname="2" y1="3.096" y2="3.096" x1="29.1502" x2="21.9501"/>
<g class="terminal" xmlns="http://www.w3.org/2000/svg" stroke="none" height="0.000283465" id="connector1terminal" stroke-width="0" fill="none" width="0.000283466" x="29.1502" y="3.096"/>
<text class="text" text-anchor="middle" xmlns="http://www.w3.org/2000/svg" stroke="none" font-family="'Droid Sans'" stroke-width="0" font-size="2.50001" fill="#8c8c8c" x="25.5501" y="2.046">2</text>
<line class="pin" xmlns="http://www.w3.org/2000/svg" stroke-linecap="round" stroke="#787878" id="connector0pin" stroke-width="0.700001" connectorname="1" y1="3.096" y2="3.096" x1="0.350001" x2="7.55002"/>
<g class="terminal" xmlns="http://www.w3.org/2000/svg" stroke="none" height="0.000283465" id="connector0terminal" stroke-width="0" fill="none" width="0.000283466" x="0.350001" y="3.096"/>
<text class="text" text-anchor="middle" xmlns="http://www.w3.org/2000/svg" stroke="none" font-family="'Droid Sans'" stroke-width="0" font-size="2.50001" fill="#8c8c8c" x="3.95001" y="2.046">1</text>
</g>
</g></g></g><g partID='57810'><g transform='translate(40.5698,11.3552)' ><g transform='matrix(0,1,-1,0,0,0)'  ><g id="schematic">
<g>
<path d="M13.5,14.966L9.9,14.966c-0.193,0,-0.35,-0.156,-0.35,-0.35s0.156,-0.35,0.35,-0.35L13.5,14.266c0.193,0,0.35,0.156,0.35,0.35S13.694,14.966,13.5,14.966z"/>
</g>
<g>
<path d="M9.9,14.966L6.3,14.966c-0.193,0,-0.35,-0.156,-0.35,-0.35s0.157,-0.35,0.35,-0.35l3.6,0c0.193,0,0.35,0.156,0.35,0.35S10.093,14.966,9.9,14.966z"/>
</g>
<g>
<polygon points="9.9,14.616,6.3,7.416,9.9,7.416,13.5,7.416" fill="#FFFFFF"/>
<path d="M9.9,15.398L5.734,7.066l8.333,0L9.9,15.398zM6.866,7.766L9.9,13.834l3.034,-6.068L6.866,7.766z"/>
</g>
<g>
<path d="M9.9,14.841c-0.124,0,-0.225,-0.101,-0.225,-0.225l0,-7.2c0,-0.124,0.101,-0.225,0.225,-0.225s0.225,0.101,0.225,0.225l0,7.2C10.124,14.74,10.024,14.841,9.9,14.841z"/>
</g>
<g>
<path d="M1.8,12.141c-0.058,0,-0.115,-0.021,-0.159,-0.065c-0.088,-0.088,-0.088,-0.23,0,-0.318l2.34,-2.341c0.088,-0.088,0.23,-0.088,0.318,0s0.088,0.23,0,0.318l-2.34,2.341C1.915,12.12,1.858,12.141,1.8,12.141z"/>
</g>
<g>
<path d="M2.16,15.381c-0.058,0,-0.115,-0.021,-0.159,-0.065c-0.088,-0.088,-0.088,-0.23,0,-0.318l2.34,-2.34c0.088,-0.088,0.23,-0.088,0.318,0s0.088,0.23,0,0.318l-2.34,2.34C2.276,15.359,2.218,15.381,2.16,15.381z"/>
</g>
<g id="connector0pin">
<path fill="#787878" d="M9.9,22.166c-0.193,0,-0.35,-0.156,-0.35,-0.35l0,-7.2c0,-0.193,0.156,-0.35,0.35,-0.35s0.35,0.156,0.35,0.35l0,7.2C10.249,22.01,10.093,22.166,9.9,22.166z"/>
</g>
<g id="connector0terminal">
<rect height="0.001" fill="none" width="0.001" x="9.9" y="21.816"/>
</g>
<g transform="matrix(1, 0, 0, 1, 3.429, 6.4262)">
<g>
<g transform="rotate(270)">
<g>
<g enable-background="new    ">
<path fill="#787878" d="M-11.647,5.54l-0.891,0L-12.538,5.388l0.342,-0.372c0.049,-0.053,0.093,-0.101,0.131,-0.145s0.071,-0.086,0.099,-0.128c0.026,-0.042,0.047,-0.084,0.062,-0.125c0.015,-0.043,0.021,-0.088,0.021,-0.138c0,-0.038,-0.005,-0.072,-0.017,-0.102s-0.027,-0.054,-0.047,-0.075c-0.021,-0.02,-0.045,-0.035,-0.073,-0.046s-0.06,-0.016,-0.094,-0.016c-0.062,0,-0.118,0.013,-0.167,0.038c-0.051,0.024,-0.098,0.057,-0.143,0.096l-0.1,-0.116c0.025,-0.023,0.055,-0.046,0.084,-0.065c0.029,-0.021,0.063,-0.039,0.097,-0.054s0.071,-0.026,0.109,-0.036c0.038,-0.008,0.079,-0.013,0.121,-0.013c0.063,0,0.119,0.009,0.169,0.026c0.051,0.018,0.094,0.043,0.129,0.076c0.035,0.032,0.063,0.072,0.082,0.119c0.019,0.048,0.028,0.101,0.028,0.16c0,0.056,-0.009,0.108,-0.026,0.158c-0.017,0.05,-0.041,0.1,-0.07,0.148c-0.031,0.048,-0.066,0.097,-0.109,0.146c-0.041,0.049,-0.087,0.1,-0.136,0.152L-12.32,5.37l0,0.008l0.673,0L-11.647,5.54z"/>
</g>
</g>
</g>
</g>
</g>
<g id="connector1pin">
<path fill="#787878" d="M9.9,7.766c-0.193,0,-0.35,-0.157,-0.35,-0.35l0,-7.2c0,-0.193,0.156,-0.35,0.35,-0.35s0.35,0.157,0.35,0.35l0,7.2C10.249,7.609,10.093,7.766,9.9,7.766z"/>
</g>
<g id="connector1terminal">
<polygon points="9.9,0.216,9.901,0.216,9.901,0.216" fill="none"/>
</g>
<g transform="matrix(1, 0, 0, 1, 3.429, 1.3462)">
<g>
<g transform="rotate(270)">
<g>
<g enable-background="new    ">
<path fill="#787878" d="M-2.616,5.54l-0.172,0L-2.788,4.648c0,-0.028,0,-0.058,0,-0.09s0.001,-0.063,0.002,-0.095c0.001,-0.032,0.002,-0.063,0.003,-0.092c0.001,-0.028,0.002,-0.054,0.002,-0.076c-0.011,0.012,-0.021,0.021,-0.029,0.03s-0.017,0.017,-0.026,0.024s-0.018,0.016,-0.028,0.025c-0.01,0.008,-0.021,0.019,-0.035,0.03l-0.145,0.118l-0.094,-0.12l0.374,-0.292l0.146,0L-2.618,5.54z"/>
</g>
</g>
</g>
</g>
</g>
<g>
<path d="M0.18,13.536l1.08,-2.521l1.44,1.438L0.18,13.536z"/>
</g>
<g>
<path d="M0.54,16.776l1.08,-2.521l1.438,1.438L0.54,16.776z"/>
</g>
</g>
</g></g></g><g partID='66200'><g transform='translate(97.4413,6.8572)' ><g transform='matrix(0,1,-1,0,0,0)'  ><g id="schematic">
<polyline stroke-linecap="round" stroke="#000000" points="4.125,17.557,21.6,27.474,21.6,37.743" stroke-width="0.7" fill="none"/>
<polygon points="4.23,19.505,-0.022,15.188,5.819,16.8"/>
<polyline stroke-linecap="round" stroke="#000000" points="14.401,36,14.401,34.559,11.521,32.4,18.001,28.799,11.521,25.2,18.001,21.6,11.521,18,18.001,14.4,11.521,10.8,14.401,8.64,14.401,7.2" stroke-width="0.7" fill="none"/>
<g id="connector1terminal" fill="none" d="M21.968,43.2l0,-1.054l-0.672,0.017L21.296,43.2L21.968,43.2z"/>
<line stroke-linecap="round" stroke="#787878" id="connector1pin" stroke-width="0.7" fill="none" y1="42.85" y2="36" x1="21.621" x2="21.621"/>
<line stroke-linecap="round" stroke="#787878" id="connector0pin" stroke-width="0.7" fill="none" y1="42.85" y2="36" x1="14.4" x2="14.4"/>
<g id="connector0terminal" fill="none" d="M14.047,42.176l0.703,0L14.719,43.2l-0.656,0L14.047,42.176z"/>
<g transform="matrix(1, 0, 0, 1, 11.521, 40.0005)">
<text font-family="'DroidSans'" font-size="2" fill="#787878">1</text>
</g>
<g transform="matrix(1, 0, 0, 1, 19.1245, 40.0005)">
<text font-family="'DroidSans'" font-size="2" fill="#787878">3</text>
</g>
<line stroke-linecap="round" stroke="#787878" id="connector2pin" stroke-width="0.7" fill="none" y1="0.35" y2="7.55" x1="14.4" x2="14.4"/>
<g id="connector2terminal" fill="none" d="M14.15,-0.25l0,0.5l0.497,-0.01l0.003,-0.49L14.15,-0.25z"/>
<g transform="matrix(1, 0, 0, 1, 11.521, 4.9751)">
<text font-family="'DroidSans'" font-size="2" fill="#787878">2</text>
</g>
</g>
</g></g></g><g partID='64040'><line stroke-linecap='round' stroke='#404040' x1='11.5533' y1='50.0557' x2='25.9526' y2='50.0557' stroke-width='0.699998' /></g><circle  fill="black" cx="25.9526" cy="50.0557" r="1.44" stroke-width="0" stroke="none" /><g partID='64050'><line stroke-linecap='round' stroke='#404040' x1='11.5533' y1='50.0557' x2='11.5533' y2='50.0557' stroke-width='0.699998' /></g><g partID='67230'><line stroke-linecap='round' stroke='#404040' x1='97.9533' y1='50.0557' x2='97.4413' y2='21.2572' stroke-width='0.699998' /></g><g partID='67240'><line stroke-linecap='round' stroke='#404040' x1='54.7528' y1='50.0557' x2='97.9533' y2='50.0557' stroke-width='0.699998' /></g><g partID='67760'><line stroke-linecap='round' stroke='#404040' x1='40.3538' y1='21.2557' x2='54.7682' y2='28.4892' stroke-width='0.699998' /></g><g partID='68740'><line stroke-linecap='round' stroke='#404040' x1='11.5533' y1='21.2557' x2='18.7533' y2='21.2557' stroke-width='0.699998' /></g><g partID='68750'><line stroke-linecap='round' stroke='#404040' x1='11.5533' y1='21.2555' x2='11.5533' y2='21.2557' stroke-width='0.699998' /></g><g partID='69670'><line stroke-linecap='round' stroke='#404040' x1='4.34085' y1='57.2245' x2='25.9097' y2='57.2245' stroke-width='0.699998' /></g><g partID='69580'><line stroke-linecap='round' stroke='#404040' x1='54.7533' y1='6.81211' x2='4.34085' y2='6.81211' stroke-width='0.699998' /></g><g partID='69490'><line stroke-linecap='round' stroke='#404040' x1='4.34085' y1='6.81211' x2='4.34085' y2='57.2245' stroke-width='0.699998' /></g><g partID='69400'><line stroke-linecap='round' stroke='#404040' x1='54.7533' y1='21.2557' x2='54.7533' y2='6.81211' stroke-width='0.699998' /></g><g partID='69760'><line stroke-linecap='round' stroke='#404040' x1='25.9097' y1='57.2245' x2='25.9526' y2='50.0557' stroke-width='0.699998' /></g><circle  fill="black" cx="25.9526" cy="50.0557" r="1.44" stroke-width="0" stroke="none" /><g partID='57540' id='partLabel'><g transform='translate(0,30.0487)' ><g transform='matrix(0,-1,1,0,0,0)'  ><g font-size='3' font-style='normal' font-weight='normal' fill='#000000' font-family="'DroidSans'" id='schematicLabel' fill-opacity='1' stroke='none' ><text x='0' y='2.25'>R1</text><text x='0' y='5.25'>1k&#x3a9;</text></g></g></g></g><g partID='66200' id='partLabel'><g transform='translate(65.5556,0)' ><g font-size='3' font-style='normal' font-weight='normal' fill='#000000' font-family="'DroidSans'" id='schematicLabel' fill-opacity='1' stroke='none' ><text x='0' y='2.25'>Potentiometer</text><text x='0' y='5.25'>10k&#x3a9;</text></g></g></g></svg>